#N canvas 530 428 450 300 12;
#X obj 195 18 tgl 15 0 empty empty empty 17 7 0 10 -262144 -1 -1 1
1;
#X obj 111 147 f;
#X obj 111 173 &&, f 17;
#X obj 111 199 tgl 15 0 empty empty empty 17 7 0 10 -262144 -1 -1 1
1;
#X obj 195 38 sel 0 1, f 14;
#X msg 195 71 0;
#X obj 75 18 tgl 15 0 empty empty empty 17 7 0 10 -262144 -1 -1 1 1
;
#X obj 75 38 sel 0 1, f 14;
#X msg 75 71 0;
#X obj 195 126 t f f;
#X msg 123 71 1;
#X msg 243 71 1;
#X connect 0 0 4 0;
#X connect 1 0 2 0;
#X connect 2 0 3 0;
#X connect 4 0 5 0;
#X connect 4 1 11 0;
#X connect 5 0 9 0;
#X connect 6 0 7 0;
#X connect 7 0 8 0;
#X connect 7 1 10 0;
#X connect 8 0 1 0;
#X connect 9 0 1 0;
#X connect 9 1 2 1;
#X connect 10 0 1 0;
#X connect 11 0 9 0;
