#N canvas 1409 122 450 300 12;
#N canvas 841 235 450 404 nor 0;
#X obj 111 45 inlet;
#X obj 263 45 inlet;
#X obj 111 233 ||, f 17;
#X floatatom 111 299 5 0 0 0 - - -;
#X obj 111 324 outlet;
#X obj 111 259 != 1;
#X obj 111 207 i;
#X obj 111 98 t f i, f 17;
#X obj 226 207 i;
#X connect 0 0 7 0;
#X connect 1 0 8 0;
#X connect 2 0 5 0;
#X connect 3 0 4 0;
#X connect 5 0 3 0;
#X connect 6 0 2 0;
#X connect 7 0 6 0;
#X connect 7 1 8 0;
#X connect 8 0 2 1;
#X restore 82 109 pd nor;
#X f 10;
#X obj 82 78 tgl 15 0 empty empty empty 17 7 0 10 -262144 -1 -1 0 1
;
#X floatatom 82 175 5 0 0 0 - - -;
#N canvas 841 235 450 404 nor 1;
#X obj 111 45 inlet;
#X obj 263 45 inlet;
#X obj 111 233 ||, f 17;
#X floatatom 111 299 5 0 0 0 - - -;
#X obj 111 324 outlet;
#X obj 111 259 != 1;
#X obj 111 207 i;
#X obj 111 98 t f i, f 17;
#X obj 226 207 i;
#X connect 0 0 7 0;
#X connect 1 0 8 0;
#X connect 2 0 5 0;
#X connect 3 0 4 0;
#X connect 5 0 3 0;
#X connect 6 0 2 0;
#X connect 7 0 6 0;
#X connect 7 1 8 0;
#X connect 8 0 2 1;
#X restore 332 109 pd nor;
#X f 10;
#X obj 332 78 tgl 15 0 empty empty empty 17 7 0 10 -262144 -1 -1 0
1;
#X floatatom 332 175 5 0 0 0 - - -;
#X obj 172 130 t i;
#X obj 292 131 t i;
#X connect 0 0 2 0;
#X connect 0 0 6 0;
#X connect 1 0 0 0;
#X connect 3 0 5 0;
#X connect 3 0 7 0;
#X connect 4 0 3 0;
#X connect 6 0 3 1;
#X connect 7 0 0 1;
