#N canvas 0 50 450 300 12;
#X obj 90 50 inlet;
#X obj 202 50 inlet;
#X obj 202 76 t b f;
#X obj 90 97 f;
#X obj 90 133 ||, f 21;
#X floatatom 90 159 5 0 0 0 - - -;
#X obj 90 184 outlet;
#X connect 0 0 3 0;
#X connect 1 0 2 0;
#X connect 2 0 3 0;
#X connect 2 1 4 1;
#X connect 3 0 4 0;
#X connect 4 0 5 0;
#X connect 5 0 6 0;
